<svg width="24" height="24" viewBox="0 0 24 24" fill="none" xmlns="http://www.w3.org/2000/svg">
<circle cx="12" cy="12" r="11.5" stroke="#E41117"/>
<path fill-rule="evenodd" clip-rule="evenodd" d="M12 7C14.2091 7 16 8.8018 16 11.0238C16 13.2458 12 18 12 18C12 18 8 13.2458 8 11.0238C8 8.8018 9.79093 7 12 7ZM12.0021 9.2792C12.3566 9.2792 12.703 9.38758 12.9977 9.59064C13.2924 9.7937 13.5221 10.0823 13.6577 10.42C13.7934 10.7577 13.8288 11.1292 13.7597 11.4877C13.6906 11.8462 13.5199 12.1755 13.2693 12.4339C13.0187 12.6924 12.6993 12.8684 12.3517 12.9397C12.0041 13.011 11.6438 12.9744 11.3164 12.8345C10.9889 12.6947 10.709 12.4578 10.5121 12.1539C10.3152 11.85 10.2101 11.4927 10.2101 11.1272C10.2101 10.6371 10.3989 10.167 10.735 9.82047C11.0711 9.4739 11.5269 9.2792 12.0021 9.2792Z" fill="#E41117"/>
</svg>
