<svg width="24" height="24" viewBox="0 0 24 24" fill="none" xmlns="http://www.w3.org/2000/svg">
<circle cx="12" cy="12" r="11.5" stroke="#E41117"/>
<path fill-rule="evenodd" clip-rule="evenodd" d="M7.00025 9.14009C7.00025 9.14009 6.97833 8.56523 7.3432 7.82137C7.60058 7.2953 8.60255 7.00469 8.60255 7.00469C8.60255 7.00469 9.03105 6.8958 9.89231 7.72733C10.2346 8.04421 10.4524 8.47308 10.5061 8.93645C10.5372 9.35929 9.63563 10.2608 9.63563 10.2608C9.70541 10.7785 9.92153 11.2654 10.2586 11.6644C10.6129 12.0766 11.2231 12.7194 11.5434 13.0199C11.8178 13.2773 12.1239 13.6131 12.5312 13.8832C13.3324 14.4143 13.5247 14.3662 13.5247 14.3662C13.5247 14.3662 14.666 13.4102 15.0075 13.4434C15.267 13.4696 15.6347 13.6407 16.1049 14.0416C16.4543 14.3386 16.6777 14.5635 16.8531 14.8633C16.9155 14.9668 16.9647 15.0777 16.9994 15.1935C16.9994 15.1935 17.0454 15.6679 16.3086 16.4231C15.5753 17.1733 14.5641 16.9768 14.5641 16.9768C14.5641 16.9768 13.9829 16.8905 13.0318 16.4429C11.9788 15.9294 11.0194 15.243 10.1935 14.4122C9.42278 13.616 8.41234 12.3976 7.9209 11.5498C7.30218 10.4843 7.00025 9.14009 7.00025 9.14009Z" fill="#E41117"/>
</svg>
