<svg width="44" height="32" viewBox="0 0 44 32" fill="none" xmlns="http://www.w3.org/2000/svg">
<path fill-rule="evenodd" clip-rule="evenodd" d="M7.78561 1.34132C5.25662 1.34132 3.06256 3.67664 3.06256 6.74455C3.06256 8.37793 3.69567 9.82675 4.67603 10.8093C5.51727 11.6525 6.60695 12.1478 7.78561 12.1478C8.99065 12.1478 10.1032 11.6299 10.9518 10.7516C11.9 9.77044 12.5087 8.34608 12.5087 6.74455C12.5087 3.67664 10.3146 1.34132 7.78561 1.34132ZM1.70573 6.74455C1.70573 3.10342 4.34831 0 7.78561 0C11.2229 0 13.8655 3.10342 13.8655 6.74455C13.8655 8.32802 13.3731 9.79376 12.5384 10.9529C13.1751 11.2971 13.7868 11.7902 14.2897 12.3873C14.7221 12.9006 15.0862 13.5055 15.3145 14.1777C15.3839 14.0893 15.4554 14.0032 15.5287 13.9195C16.0456 13.3297 16.6699 12.8401 17.3112 12.4864C16.4376 11.3139 15.9201 9.81408 15.9201 8.19071C15.9201 4.54959 18.5627 1.44616 22 1.44616C25.4373 1.44616 28.0799 4.54959 28.0799 8.19071C28.0799 9.77418 27.5875 11.2399 26.7528 12.3991C27.3895 12.7432 28.0011 13.2364 28.5041 13.8334C28.582 13.9259 28.6576 14.0213 28.7307 14.1196C28.9675 13.5041 29.3262 12.9492 29.7431 12.4734C30.26 11.8836 30.8843 11.3939 31.5255 11.0403C30.652 9.86773 30.1345 8.36791 30.1345 6.74455C30.1345 3.10342 32.7771 0 36.2144 0C39.6517 0 42.2943 3.10342 42.2943 6.74455C42.2943 8.32802 41.8019 9.79376 40.9672 10.9529C41.6039 11.2971 42.2155 11.7902 42.7185 12.3873C43.4594 13.2668 44 14.4156 44 15.7108V24.9662C44 26.2767 42.9508 27.3723 41.6159 27.3723H30.8129C30.4432 27.3723 30.0953 27.2882 29.7856 27.1388V29.5939C29.7856 30.9045 28.7364 32 27.4015 32H16.5985C15.2636 32 14.2144 30.9045 14.2144 29.5939V27.1388C13.9047 27.2882 13.5569 27.3723 13.1871 27.3723H2.38414C1.04917 27.3723 0 26.2767 0 24.9662V15.7108C0 14.4468 0.562363 13.3314 1.31434 12.4734C1.83121 11.8836 2.4555 11.3939 3.09676 11.0403C2.22324 9.86773 1.70573 8.36791 1.70573 6.74455ZM4.04658 12.0648C3.45414 12.3405 2.83593 12.7856 2.33985 13.3516C1.74027 14.0358 1.35683 14.8513 1.35683 15.7108V24.9662C1.35683 25.5726 1.83502 26.031 2.38414 26.031H13.1871C13.7362 26.031 14.2144 25.5726 14.2144 24.9662V15.7108C14.2144 14.7934 13.8308 13.9386 13.247 13.2456C12.7649 12.6732 12.1704 12.2407 11.607 11.9922C10.5715 12.9208 9.2437 13.4891 7.78561 13.4891C6.36613 13.4891 5.06976 12.9504 4.04658 12.0648ZM15.5712 29.5939C15.5712 30.2003 16.0494 30.6587 16.5985 30.6587H27.4015C27.9506 30.6587 28.4288 30.2003 28.4288 29.5939V17.1569C28.4288 16.2396 28.0452 15.3848 27.4614 14.6917C26.9793 14.1194 26.3848 13.6868 25.8214 13.4384C24.7859 14.367 23.4581 14.9353 22 14.9353C20.5805 14.9353 19.2841 14.3966 18.261 13.511C17.6685 13.7866 17.0503 14.2317 16.5542 14.7978C15.9547 15.482 15.5712 16.2975 15.5712 17.1569V29.5939ZM40.0358 11.9922C39.0003 12.9208 37.6725 13.4891 36.2144 13.4891C34.7949 13.4891 33.4985 12.9504 32.4754 12.0648C31.8829 12.3405 31.2647 12.7856 30.7686 13.3516C30.1691 14.0358 29.7856 14.8513 29.7856 15.7108V24.9662C29.7856 25.5726 30.2638 26.031 30.8129 26.031H41.6159C42.165 26.031 42.6432 25.5726 42.6432 24.9662V15.7108C42.6432 14.7934 42.2596 13.9386 41.6758 13.2456C41.1937 12.6732 40.5992 12.2407 40.0358 11.9922ZM36.2144 1.34132C33.6854 1.34132 31.4913 3.67664 31.4913 6.74455C31.4913 8.37793 32.1245 9.82675 33.1048 10.8093C33.946 11.6525 35.0357 12.1478 36.2144 12.1478C37.4194 12.1478 38.5319 11.6299 39.3806 10.7516C40.3287 9.77044 40.9374 8.34608 40.9374 6.74455C40.9374 3.67664 38.7434 1.34132 36.2144 1.34132ZM22 2.78748C19.471 2.78748 17.2769 5.12281 17.2769 8.19071C17.2769 9.8241 17.9101 11.2729 18.8904 12.2555C19.7317 13.0986 20.8213 13.5939 22 13.5939C23.205 13.5939 24.3176 13.0761 25.1662 12.1978C26.1143 11.2166 26.7231 9.79225 26.7231 8.19071C26.7231 5.12281 24.529 2.78748 22 2.78748Z" fill="#E41117"/>
</svg>
