<svg width="32" height="32" viewBox="0 0 32 32" fill="none" xmlns="http://www.w3.org/2000/svg">
<path d="M30.3501 12.6278C30.1836 12.3673 30.0968 12.0561 30.1113 11.7521L30.227 9.60289C30.2922 8.45228 29.6698 7.38127 28.6422 6.86024L26.739 5.89778C26.464 5.76029 26.2397 5.53596 26.1022 5.26097L25.1398 3.35776C24.6187 2.33017 23.5477 1.70782 22.3971 1.77295L20.2479 1.88874C19.9439 1.90321 19.6255 1.82361 19.3722 1.64993L17.592 0.477612C16.6223 -0.159204 15.3704 -0.159204 14.408 0.477612L12.6278 1.64993C12.3673 1.81637 12.0561 1.90321 11.7521 1.88874L9.60289 1.77295C8.45228 1.70782 7.38127 2.33017 6.86024 3.35776L5.89778 5.26097C5.76029 5.53596 5.53596 5.76029 5.26097 5.89778L3.35776 6.86024C2.33017 7.38127 1.70782 8.45228 1.77295 9.60289L1.88874 11.7521C1.90321 12.0633 1.82361 12.3745 1.64993 12.6278L0.477612 14.408C-0.159204 15.3777 -0.159204 16.6296 0.477612 17.592L1.64993 19.3722C1.81637 19.6327 1.90321 19.9439 1.88874 20.2479L1.77295 22.3971C1.70782 23.5477 2.33017 24.6187 3.35776 25.1398L5.26097 26.1022C5.53596 26.2397 5.76029 26.464 5.89778 26.739L6.86024 28.6422C7.38127 29.6698 8.45228 30.2922 9.60289 30.227L11.7521 30.1113C12.0561 30.0968 12.3745 30.1764 12.6278 30.3501L14.408 31.5224C14.8928 31.8408 15.45 32 16 32C16.55 32 17.1072 31.8408 17.592 31.5224L19.3722 30.3501C19.6327 30.1836 19.9439 30.0968 20.2479 30.1113L22.3971 30.227C23.5477 30.2922 24.6187 29.6698 25.1398 28.6422L26.1022 26.739C26.2397 26.464 26.464 26.2397 26.739 26.1022L28.6422 25.1398C29.6698 24.6187 30.2922 23.5477 30.227 22.3971L30.1113 20.2479C30.0968 19.9367 30.1764 19.6255 30.3501 19.3722L31.5224 17.592C32.1592 16.6223 32.1592 15.3704 31.5224 14.408L30.3501 12.6278ZM30.3139 16.796L29.1416 18.5762C28.8014 19.09 28.635 19.7123 28.6712 20.3275L28.787 22.4767C28.8159 23.0484 28.5047 23.5911 27.991 23.8517L26.0877 24.8141C25.5305 25.0963 25.0891 25.5378 24.8069 26.095L23.8444 27.9982C23.5839 28.512 23.0484 28.8232 22.4695 28.7942L20.3202 28.6784C19.7051 28.6422 19.0828 28.8159 18.569 29.1488L16.796 30.3139C16.3112 30.6323 15.6888 30.6323 15.204 30.3139L13.4238 29.1416C12.9534 28.8304 12.389 28.664 11.8245 28.664C11.7739 28.664 11.7232 28.664 11.6653 28.6712L9.51606 28.787C8.94437 28.8159 8.40163 28.5047 8.14111 27.991L7.17865 26.0877C6.89643 25.5305 6.455 25.0891 5.89778 24.8069L3.99457 23.8444C3.48078 23.5839 3.16961 23.0484 3.19855 22.4695L3.31434 20.3202C3.35052 19.7051 3.17684 19.0828 2.84396 18.569L1.68611 16.796C1.36771 16.3112 1.36771 15.6888 1.68611 15.204L2.85843 13.4238C3.19855 12.91 3.36499 12.2877 3.32881 11.6725L3.21303 9.52329C3.18408 8.95161 3.49525 8.40886 4.00905 8.14835L5.91226 7.18589C6.46947 6.90366 6.9109 6.46223 7.19312 5.90502L8.15559 4.00181C8.4161 3.48801 8.95161 3.17684 9.53053 3.20579L11.6798 3.32157C12.2949 3.35776 12.9172 3.18408 13.431 2.8512L15.204 1.68611C15.6888 1.36771 16.3112 1.36771 16.796 1.68611L18.5762 2.85843C19.09 3.19855 19.7123 3.36499 20.3275 3.32881L22.4767 3.21303C23.0484 3.18408 23.5911 3.49525 23.8517 4.00905L24.8141 5.91226C25.0963 6.46947 25.5378 6.9109 26.095 7.19312L27.9982 8.15559C28.512 8.4161 28.8232 8.95161 28.7942 9.53053L28.6784 11.6798C28.6422 12.2949 28.8159 12.9172 29.1488 13.431L30.3211 15.2112C30.6323 15.6888 30.6323 16.3112 30.3139 16.796Z" fill="#E41117"/>
<path d="M13.185 15.6671C14.5527 15.6671 15.6671 14.5527 15.6671 13.185C15.6671 11.8173 14.5527 10.7028 13.185 10.7028C11.8173 10.7028 10.7028 11.8173 10.7028 13.185C10.7028 14.5527 11.81 15.6671 13.185 15.6671ZM13.185 12.1429C13.7567 12.1429 14.2198 12.6061 14.2198 13.1777C14.2198 13.7494 13.7567 14.2126 13.185 14.2126C12.6133 14.2126 12.1502 13.7494 12.1502 13.1777C12.1502 12.6061 12.6061 12.1429 13.185 12.1429Z" fill="#E41117"/>
<path d="M18.815 16.3329C17.4473 16.3329 16.3329 17.4473 16.3329 18.815C16.3329 20.1827 17.4473 21.2971 18.815 21.2971C20.1827 21.2971 21.2971 20.1827 21.2971 18.815C21.2971 17.4473 20.19 16.3329 18.815 16.3329ZM18.815 19.8571C18.2433 19.8571 17.7802 19.3939 17.7802 18.8223C17.7802 18.2506 18.2433 17.7874 18.815 17.7874C19.3867 17.7874 19.8498 18.2506 19.8498 18.8223C19.8498 19.3939 19.3939 19.8571 18.815 19.8571Z" fill="#E41117"/>
<path d="M20.6459 11.3541C20.3636 11.0719 19.9077 11.0719 19.6255 11.3541L11.5929 19.3867C11.3107 19.6689 11.3107 20.1248 11.5929 20.4071C11.7377 20.5518 11.9186 20.6169 12.1067 20.6169C12.2949 20.6169 12.4758 20.5445 12.6205 20.4071L20.6531 12.3745C20.9281 12.0923 20.9281 11.6364 20.6459 11.3541Z" fill="#E41117"/>
</svg>
