<svg width="23" height="32" viewBox="0 0 23 32" fill="none" xmlns="http://www.w3.org/2000/svg">
<path d="M22.3037 0H0.696295C0.313969 0 0 0.32 0 0.7112V31.288C0 31.68 0.313969 32 0.69709 32H22.3029C22.6868 32 23 31.68 23 31.2888V0.712C23.0008 0.524839 22.9281 0.344936 22.7977 0.211547C22.6672 0.0781573 22.4896 0.00211049 22.3037 0ZM21.6066 30.5776H1.39338V1.4224H21.6066V30.5776ZM4.18095 13.512H18.8175C19.2006 13.512 19.5145 13.192 19.5145 12.8008V4.2664C19.5152 4.07924 19.4422 3.89942 19.3116 3.76618C19.1811 3.63294 19.0034 3.5571 18.8175 3.5552H4.18174C3.79862 3.5552 3.48465 3.8752 3.48465 4.2672V12.8C3.48465 13.1912 3.79862 13.5112 4.18174 13.5112L4.18095 13.512ZM4.87804 4.9784H18.1204V12.0904H11.8132L8.18862 8.036C8.12865 7.96642 8.0551 7.90999 7.97255 7.87022C7.89 7.83045 7.8002 7.80819 7.70874 7.80481C7.61728 7.80143 7.52611 7.81702 7.44089 7.8506C7.35566 7.88417 7.27821 7.93503 7.21333 8C7.14491 8.06232 7.08962 8.13783 7.05075 8.22205C7.01187 8.30628 6.99019 8.3975 6.98701 8.49032C6.98382 8.58314 6.99918 8.67565 7.03219 8.76238C7.0652 8.84911 7.11517 8.92828 7.17915 8.9952L9.93174 12.0536H4.87883V4.9776L4.87804 4.9784ZM7.6656 22.756C6.13232 22.756 4.87804 24.036 4.87804 25.6008C4.87804 27.1656 6.13232 28.4456 7.6656 28.4456C9.19968 28.4456 10.454 27.1656 10.454 25.6008C10.454 24.036 9.19888 22.756 7.6656 22.756ZM7.6656 27.0232C6.89936 27.0232 6.27222 26.3832 6.27222 25.6008C6.27222 24.8184 6.89936 24.1784 7.6656 24.1784C8.43264 24.1784 9.05978 24.8184 9.05978 25.6008C9.05978 26.3832 8.43185 27.0232 7.6656 27.0232ZM15.3328 22.756C13.7987 22.756 12.5444 24.036 12.5444 25.6008C12.5444 27.1656 13.7995 28.4456 15.3328 28.4456C16.8661 28.4456 18.1204 27.1656 18.1204 25.6008C18.1204 24.036 16.8661 22.756 15.3328 22.756ZM15.3328 27.0232C14.5658 27.0232 13.9386 26.3832 13.9386 25.6008C13.9386 24.8184 14.5666 24.1784 15.3328 24.1784C16.099 24.1784 16.7262 24.8184 16.7262 25.6008C16.7262 26.3832 16.099 27.0232 15.3328 27.0232ZM8.36269 16.356V17.4232H9.40873C9.79185 17.4232 10.105 17.7432 10.105 18.1344C10.1057 18.3216 10.0327 18.5014 9.90213 18.6346C9.77153 18.7679 9.59388 18.8437 9.40793 18.8456H8.36269V19.912C8.36354 20.0992 8.29067 20.2792 8.16003 20.4124C8.02939 20.5457 7.85162 20.6215 7.6656 20.6232C7.47966 20.6211 7.30208 20.545 7.17164 20.4117C7.04119 20.2783 6.96846 20.0984 6.96931 19.9112V18.8456H5.92407C5.73798 18.8437 5.56021 18.7677 5.42959 18.6343C5.29897 18.5009 5.22613 18.3209 5.22698 18.1336C5.22698 17.7432 5.54095 17.4232 5.92407 17.4232H6.9709V16.356C6.9709 15.9656 7.28407 15.6456 7.66719 15.6456C8.05111 15.6456 8.36428 15.9656 8.36428 16.356H8.36269ZM13.5905 18.8456C13.4044 18.8437 13.2266 18.7677 13.096 18.6343C12.9654 18.5009 12.8925 18.3209 12.8934 18.1336C12.8934 17.7432 13.2066 17.4232 13.5905 17.4232H17.0751C17.4582 17.4232 17.7722 17.7432 17.7722 18.1344C17.7729 18.3216 17.6999 18.5014 17.5693 18.6346C17.4387 18.7679 17.2611 18.8437 17.0751 18.8456H13.5905Z" fill="#E41117"/>
</svg>
