<svg width="32" height="32" viewBox="0 0 32 32" fill="none" xmlns="http://www.w3.org/2000/svg">
<path d="M26.6667 8.3125V2.66667C26.6667 1.19635 25.4703 0 24 0H2.66667C1.19635 0 0 1.19635 0 2.66667V16.5333C0 18.0036 1.19635 19.2 2.66667 19.2H17.0667V20.8C17.0667 20.9419 17.1227 21.0773 17.2229 21.1771L19.7333 23.6875V31.4667C19.7333 31.7617 19.9716 32 20.2667 32H31.4667C31.7617 32 32 31.7617 32 31.4667V13.8667C32 13.7247 31.944 13.5893 31.8438 13.4896L26.6667 8.3125ZM1.06667 16.5333V2.66667C1.06667 1.78464 1.78464 1.06667 2.66667 1.06667H24C24.882 1.06667 25.6 1.78464 25.6 2.66667V7.24583L25.0396 6.68542C24.5115 6.15729 23.8096 5.86667 23.0625 5.86667C21.5211 5.86667 20.2667 7.12109 20.2667 8.6625C20.2667 9.40911 20.5573 10.1115 21.0854 10.6396L23.4667 13.0208V16.5333C23.4667 16.6753 23.5227 16.8107 23.6229 16.9104L24.6849 17.9724C24.4714 18.0742 24.2406 18.1333 24 18.1333H2.66667C1.78464 18.1333 1.06667 17.4154 1.06667 16.5333ZM18.1333 20.5792V19.2H24C24.5281 19.2 25.0352 19.0453 25.4698 18.7578L26.2891 19.5771L27.0432 18.8229L24.5333 16.3125V12.8C24.5333 12.6581 24.4773 12.5227 24.3771 12.4229L21.8396 9.88542C21.513 9.55886 21.3333 9.12422 21.3333 8.6625C21.3333 7.70885 22.1089 6.93333 23.0625 6.93333C23.5242 6.93333 23.9589 7.11302 24.2854 7.43958L30.9333 14.0875V25.6H20.8V23.4667C20.8 23.3247 20.744 23.1893 20.6438 23.0896L18.1333 20.5792ZM20.8 30.9333V26.6667H30.9333V30.9333H20.8Z" fill="#E41117"/>
<path d="M2.82268 6.02287L3.57684 6.77703L4.79976 5.55412L6.02268 6.77703L6.77684 6.02287L5.84247 5.08849L7.06226 4.78406L6.80393 3.74917L5.33309 4.11688V2.66662H4.26643V4.11688L2.79559 3.74917L2.53726 4.78406L3.75705 5.08849L2.82268 6.02287Z" fill="#E41117"/>
<path d="M9.22292 6.02287L9.97708 6.77703L11.2 5.55412L12.4229 6.77703L13.1771 6.02287L12.2427 5.08849L13.4625 4.78406L13.2042 3.74917L11.7333 4.11688V2.66662H10.6667V4.11688L9.19583 3.74917L8.9375 4.78406L10.1573 5.08849L9.22292 6.02287Z" fill="#E41117"/>
<path d="M19.6044 3.74917L18.1336 4.11688V2.66662H17.0669V4.11688L15.5961 3.74917L15.3377 4.78406L16.5575 5.08849L15.6232 6.02287L16.3773 6.77703L17.6002 5.55412L18.8232 6.77703L19.5773 6.02287L18.643 5.08849L19.8627 4.78406L19.6044 3.74917Z" fill="#E41117"/>
<path d="M4.26623 13.7143H8.53289V14.781H4.26623V13.7143Z" fill="#E41117"/>
<path d="M9.59976 13.7143H13.8664V14.781H9.59976V13.7143Z" fill="#E41117"/>
</svg>
