<svg width="35" height="32" viewBox="0 0 35 32" fill="none" xmlns="http://www.w3.org/2000/svg">
<path d="M33.3065 20.0533H32.1774V18.2613C32.1774 15.9556 30.4048 14.08 28.2258 14.08H6.77419C4.59516 14.08 2.82258 15.9556 2.82258 18.2613V20.0533H1.69355C0.759839 20.0533 0 20.8573 0 21.8453V31.4027C0 31.7324 0.252903 32 0.564516 32H34.4355C34.7471 32 35 31.7324 35 31.4027V21.8453C35 20.8573 34.2402 20.0533 33.3065 20.0533ZM3.95161 18.2613C3.95161 16.6145 5.21782 15.2747 6.77419 15.2747H28.2258C29.7822 15.2747 31.0484 16.6145 31.0484 18.2613V20.0533H29.9194V18.2613C29.9194 17.2733 29.1595 16.4693 28.2258 16.4693H19.7581C18.8244 16.4693 18.0645 17.2733 18.0645 18.2613V24.832H16.9355V18.2613C16.9355 17.2733 16.1756 16.4693 15.2419 16.4693H6.77419C5.84048 16.4693 5.08065 17.2733 5.08065 18.2613V20.0533H3.95161V18.2613ZM28.2258 30.8053H18.0645V26.0267H28.2258V30.8053ZM6.20968 20.5193V18.2613C6.20968 17.9322 6.46314 17.664 6.77419 17.664H15.2419C15.553 17.664 15.8065 17.9322 15.8065 18.2613V24.832H6.77419V21.8453C6.77419 21.3179 6.55347 20.8478 6.20968 20.5193ZM19.1935 24.832V18.2613C19.1935 17.9322 19.447 17.664 19.7581 17.664H28.2258C28.5369 17.664 28.7903 17.9322 28.7903 18.2613V20.5193C28.4465 20.8472 28.2258 21.3179 28.2258 21.8453V24.832H19.1935ZM1.12903 21.8453C1.12903 21.5162 1.3825 21.248 1.69355 21.248H5.08065C5.39169 21.248 5.64516 21.5162 5.64516 21.8453V30.8053H1.12903V21.8453ZM6.77419 26.0267H16.9355V30.8053H6.77419V26.0267ZM33.871 30.8053H29.3548V21.8453C29.3548 21.5162 29.6083 21.248 29.9194 21.248H33.3065C33.6175 21.248 33.871 21.5162 33.871 21.8453V30.8053Z" fill="#E41117"/>
<path d="M17.5 12.8C20.946 12.8 23.75 9.92873 23.75 6.4C23.75 2.87127 20.946 0 17.5 0C14.054 0 11.25 2.87127 11.25 6.4C11.25 9.92873 14.054 12.8 17.5 12.8ZM17.5 1.16364C20.3193 1.16364 22.6136 3.51302 22.6136 6.4C22.6136 9.28698 20.3193 11.6364 17.5 11.6364C14.6807 11.6364 12.3864 9.28698 12.3864 6.4C12.3864 3.51302 14.6807 1.16364 17.5 1.16364Z" fill="#E41117"/>
<path d="M17.9167 7.68H20V6.54222H18.3333V2.56H17.5V7.11111C17.5 7.42514 17.6867 7.68 17.9167 7.68Z" fill="#E41117"/>
</svg>
