<svg width="14" height="14" viewBox="0 0 14 14" fill="none" xmlns="http://www.w3.org/2000/svg">
<path fill-rule="evenodd" clip-rule="evenodd" d="M0.333832 3.18677C0.333832 3.18677 0.304603 2.42029 0.791092 1.42848C1.13427 0.727045 2.47023 0.339567 2.47023 0.339567C2.47023 0.339567 3.04157 0.194376 4.18991 1.30309C4.64636 1.72559 4.93663 2.29742 5.00827 2.91525C5.04976 3.47903 3.84767 4.68108 3.84767 4.68108C3.9407 5.37125 4.22888 6.02052 4.67829 6.55252C5.15064 7.10216 5.96427 7.95915 6.39136 8.35983C6.75717 8.703 7.1654 9.15083 7.70845 9.51098C8.77666 10.219 9.03312 10.1549 9.03312 10.1549C9.03312 10.1549 10.5548 8.88025 11.0102 8.92456C11.3562 8.95944 11.8465 9.18759 12.4734 9.72215C12.9392 10.1181 13.2371 10.4179 13.4709 10.8177C13.5541 10.9557 13.6197 11.1036 13.6661 11.258C13.6661 11.258 13.7273 11.8906 12.7449 12.8975C11.7672 13.8978 10.419 13.6357 10.419 13.6357C10.419 13.6357 9.64403 13.5206 8.37596 12.9239C6.97196 12.2392 5.69275 11.324 4.59154 10.2162C3.56387 9.15461 2.21661 7.53017 1.56136 6.39978C0.736402 4.979 0.333832 3.18677 0.333832 3.18677Z" fill="#E41117"/>
</svg>
