<svg width="41" height="26" viewBox="0 0 41 26" fill="none" xmlns="http://www.w3.org/2000/svg">
<path d="M40.012 20.6014C40.012 17.9869 39.4945 15.398 38.4891 12.9825C37.4837 10.567 36.0101 8.37228 34.1524 6.52355C32.2946 4.67482 30.0892 3.20833 27.662 2.20781C25.2347 1.20728 22.6332 0.692322 20.006 0.692322C17.3788 0.692322 14.7773 1.20729 12.35 2.20781C9.92279 3.20833 7.71735 4.67482 5.85962 6.52355C4.00189 8.37228 2.52826 10.567 1.52287 12.9825C0.51747 15.398 -2.29679e-07 17.9869 0 20.6014H10.003C10.003 19.2941 10.2617 17.9997 10.7644 16.792C11.2671 15.5842 12.0039 14.4868 12.9328 13.5625C13.8617 12.6381 14.9644 11.9049 16.178 11.4046C17.3916 10.9043 18.6924 10.6469 20.006 10.6469C21.3196 10.6469 22.6204 10.9043 23.834 11.4046C25.0476 11.9049 26.1503 12.6381 27.0792 13.5625C28.008 14.4868 28.7449 15.5842 29.2476 16.7919C29.7503 17.9997 30.009 19.2941 30.009 20.6014H40.012Z" fill="#E41117"/>
<path d="M22.3779 18.2688C23.6801 19.5647 23.6801 21.6656 22.3779 22.9615C21.0758 24.2573 18.9646 24.2573 17.6625 22.9615C16.6956 21.9993 16.4467 20.5933 16.9155 19.4026L14.3616 14.984L18.8017 17.5256C19.9983 17.0589 21.4111 17.3067 22.3779 18.2688Z" fill="#E41117"/>
</svg>
