<svg width="8" height="12" viewBox="0 0 8 12" fill="none" xmlns="http://www.w3.org/2000/svg">
<path fill-rule="evenodd" clip-rule="evenodd" d="M4 0.382568C6.20907 0.382568 8 2.14601 8 4.3207C8 6.4954 4 11.1484 4 11.1484C4 11.1484 0 6.4954 0 4.3207C0 2.14601 1.79093 0.382568 4 0.382568ZM4.00214 2.61325C4.35656 2.61325 4.70303 2.71932 4.99772 2.91806C5.29241 3.1168 5.52209 3.39928 5.65772 3.72977C5.79335 4.06026 5.82885 4.42391 5.7597 4.77476C5.69056 5.1256 5.51989 5.44788 5.26927 5.70082C5.01866 5.95377 4.69935 6.12603 4.35173 6.19581C4.00412 6.2656 3.64381 6.22978 3.31637 6.09289C2.98892 5.95599 2.70904 5.72418 2.51214 5.42675C2.31523 5.12932 2.21013 4.77963 2.21013 4.42191C2.21013 3.94222 2.39893 3.48218 2.735 3.14299C3.07107 2.8038 3.52687 2.61325 4.00214 2.61325Z" fill="black"/>
</svg>
