<svg width="303" height="30" viewBox="0 0 303 30" fill="none" xmlns="http://www.w3.org/2000/svg">
<path d="M58.2388 21.0287H60.4204L61.667 18.1185H67.398L68.6273 21.0287H70.8782L65.5454 8.88877H63.5716L58.2388 21.0287ZM62.4461 16.2416L64.5239 11.4201L66.6189 16.2416H62.4461Z" fill="#3A3D3F"/>
<path d="M72.264 21.0287H77.8738C80.5749 21.0287 82.3582 19.875 82.3582 17.7225C82.3582 16.0522 81.3713 15.2428 79.9516 14.7607C80.8519 14.2958 81.683 13.5209 81.683 12.0744C81.683 11.2307 81.406 10.5763 80.8692 10.0425C80.1766 9.3537 79.0858 8.97486 77.7007 8.97486H72.264V21.0287ZM74.359 14.0547V10.8518H77.4237C78.7915 10.8518 79.5533 11.4373 79.5533 12.3844C79.5533 13.5209 78.6357 14.0547 77.2678 14.0547H74.359ZM74.359 19.1517V15.8455H77.7353C79.4148 15.8455 80.2286 16.4482 80.2286 17.4642C80.2286 18.5835 79.3456 19.1517 77.8912 19.1517H74.359Z" fill="#3A3D3F"/>
<path d="M87.0449 21.0287H89.1918V10.9379H93.0356V8.97486H83.2011V10.9379H87.0449V21.0287Z" fill="#3A3D3F"/>
<path d="M100.384 21.2353C104.107 21.2353 106.739 18.3941 106.739 15.0018C106.739 11.575 104.142 8.76823 100.419 8.76823C96.6965 8.76823 94.0647 11.6095 94.0647 15.0018C94.0647 18.4285 96.6619 21.2353 100.384 21.2353ZM100.419 19.2895C98.0124 19.2895 96.2983 17.3437 96.2983 15.0018C96.2983 12.6254 97.9778 10.7141 100.384 10.7141C102.791 10.7141 104.505 12.6599 104.505 15.0018C104.505 17.3781 102.826 19.2895 100.419 19.2895Z" fill="#3A3D3F"/>
<path d="M108.619 21.0287H110.714V12.4188L114.506 18.0669H114.575L118.402 12.3844V21.0287H120.532V8.97486H118.263L114.575 14.6746L110.887 8.97486H108.619V21.0287Z" fill="#3A3D3F"/>
<path d="M128.741 21.2353C132.464 21.2353 135.096 18.3941 135.096 15.0018C135.096 11.575 132.499 8.76823 128.776 8.76823C125.053 8.76823 122.422 11.6095 122.422 15.0018C122.422 18.4285 125.019 21.2353 128.741 21.2353ZM128.776 19.2895C126.369 19.2895 124.655 17.3437 124.655 15.0018C124.655 12.6254 126.335 10.7141 128.741 10.7141C131.148 10.7141 132.862 12.6599 132.862 15.0018C132.862 17.3781 131.183 19.2895 128.776 19.2895Z" fill="#3A3D3F"/>
<path d="M136.976 21.0287H142.361C145.131 21.0287 146.863 19.72 146.863 17.3092C146.863 14.9845 145.131 13.6586 142.465 13.6586H139.089V10.8863H146.014V8.97486H136.976V21.0287ZM139.089 19.1345V15.4495H142.274C143.85 15.4495 144.733 16.0522 144.733 17.2231C144.733 18.704 143.729 19.1345 141.893 19.1345H139.089Z" fill="#3A3D3F"/>
<path d="M148.576 21.0287H150.585L156.696 12.2466V21.0287H158.791V8.97486H156.8L150.671 17.7741V8.97486H148.576V21.0287Z" fill="#3A3D3F"/>
<path d="M161.241 21.1664C163.631 21.1664 165.033 19.6339 165.033 11.9711V10.8863H169.223V21.0287H171.353V8.97486H163.042V11.3512C163.042 18.5663 161.899 19.3411 160.67 19.3411C160.41 19.3411 160.133 19.2895 159.977 19.2378L159.769 20.977C160.098 21.0631 160.774 21.1664 161.241 21.1664Z" fill="#3A3D3F"/>
<path d="M173.788 21.0287H175.796L181.908 12.2466V21.0287H184.003V8.97486H182.012L175.883 17.7741V8.97486H173.788V21.0287Z" fill="#3A3D3F"/>
<path d="M196.813 20.9771C199.082 20.9771 200.467 20.1506 201.731 18.8419L200.363 17.4643C199.324 18.4286 198.372 19.0313 196.883 19.0313C194.562 19.0313 192.883 17.1027 192.883 14.7436C192.883 12.35 194.562 10.4558 196.883 10.4558C198.268 10.4558 199.307 11.0585 200.276 11.954L201.644 10.387C200.484 9.2849 199.133 8.51001 196.9 8.51001C193.229 8.51001 190.649 11.3168 190.649 14.7436C190.649 18.2392 193.281 20.9771 196.813 20.9771Z" fill="#3A3D3F"/>
<path d="M207.775 20.7705H209.904V10.628H215.532V20.7705H217.661V8.71665H207.775V20.7705Z" fill="#3A3D3F"/>
<path d="M220.085 20.7705H222.214V16.896H224.621C227.288 16.896 229.469 15.484 229.469 12.7805C229.469 10.3181 227.686 8.71665 224.864 8.71665H220.085V20.7705ZM222.214 14.9846V10.6453H224.69C226.283 10.6453 227.305 11.3857 227.305 12.7977C227.305 14.0892 226.301 14.9846 224.69 14.9846H222.214Z" fill="#3A3D3F"/>
<path d="M236.741 20.9771C240.463 20.9771 243.095 18.1358 243.095 14.7436C243.095 11.3168 240.498 8.51001 236.775 8.51001C233.053 8.51001 230.421 11.3513 230.421 14.7436C230.421 18.1703 233.018 20.9771 236.741 20.9771ZM236.775 19.0313C234.369 19.0313 232.654 17.0854 232.654 14.7436C232.654 12.3672 234.334 10.4558 236.741 10.4558C239.147 10.4558 240.861 12.4017 240.861 14.7436C240.861 17.1199 239.182 19.0313 236.775 19.0313Z" fill="#3A3D3F"/>
<path d="M244.975 20.7705H250.36C253.13 20.7705 254.862 19.4618 254.862 17.051C254.862 14.7263 253.13 13.4004 250.464 13.4004H247.088V10.628H254.014V8.71665H244.975V20.7705ZM247.088 18.8763V15.1913H250.274C251.849 15.1913 252.732 15.794 252.732 16.9649C252.732 18.4458 251.728 18.8763 249.893 18.8763H247.088Z" fill="#3A3D3F"/>
<path d="M256.575 20.7705H265.648V18.8763H258.705V15.639H264.782V13.7448H258.705V10.6108H265.561V8.71665H256.575V20.7705Z" fill="#3A3D3F"/>
<path d="M267.482 20.7705H269.594V10.628H275.637V8.71665H267.482V20.7705Z" fill="#3A3D3F"/>
<path d="M282.853 20.9771C286.575 20.9771 289.207 18.1358 289.207 14.7436C289.207 11.3168 286.61 8.51001 282.887 8.51001C279.165 8.51001 276.533 11.3513 276.533 14.7436C276.533 18.1703 279.13 20.9771 282.853 20.9771ZM282.887 19.0313C280.481 19.0313 278.767 17.0854 278.767 14.7436C278.767 12.3672 280.446 10.4558 282.853 10.4558C285.259 10.4558 286.974 12.4017 286.974 14.7436C286.974 17.1199 285.294 19.0313 282.887 19.0313Z" fill="#3A3D3F"/>
<path d="M291.088 20.7705H293.183V12.1606L296.974 17.8087H297.044L300.87 12.1262V20.7705H303V8.71665H300.732L297.044 14.4164L293.356 8.71665H291.088V20.7705Z" fill="#3A3D3F"/>
<path d="M48.7948 24.2642C48.7948 21.0778 48.1637 17.9225 46.9377 14.9787C45.7116 12.0348 43.9145 9.35995 41.649 7.10681C39.3835 4.85367 36.6939 3.06639 33.7339 1.847C30.7739 0.627611 27.6013 -1.39282e-07 24.3974 0C21.1935 1.39283e-07 18.0209 0.627612 15.0609 1.847C12.1009 3.06639 9.41134 4.85368 7.14583 7.10681C4.88032 9.35995 3.08323 12.0348 1.85714 14.9787C0.631057 17.9225 -2.80095e-07 21.0778 0 24.2642H12.1987C12.1987 22.671 12.5142 21.0934 13.1273 19.6214C13.7403 18.1495 14.6389 16.8121 15.7716 15.6855C16.9044 14.5589 18.2491 13.6653 19.7292 13.0556C21.2092 12.4459 22.7954 12.1321 24.3974 12.1321C25.9994 12.1321 27.5856 12.4459 29.0656 13.0556C30.5457 13.6653 31.8904 14.5589 33.0232 15.6855C34.1559 16.8121 35.0545 18.1495 35.6675 19.6214C36.2806 21.0934 36.5961 22.671 36.5961 24.2642H48.7948Z" fill="#E41117"/>
<path d="M27.2898 21.4214C28.8778 23.0007 28.8778 25.5612 27.2898 27.1405C25.7019 28.7198 23.1273 28.7198 21.5393 27.1405C20.3603 25.9679 20.0566 24.2544 20.6284 22.8032L17.5139 17.418L22.9287 20.5155C24.3878 19.9468 26.1108 20.2488 27.2898 21.4214Z" fill="#E41117"/>
</svg>
